<svg xmlns="http://www.w3.org/2000/svg" viewBox="0 0 498.24 367.43"><defs><style>.cls-1,.cls-16{fill:#fff;}.cls-2{fill:#a0c6f4;}.cls-10,.cls-18,.cls-20,.cls-21,.cls-22,.cls-3{fill:none;}.cls-16,.cls-18,.cls-3{stroke:#2a1e17;}.cls-10,.cls-16,.cls-18,.cls-20,.cls-22,.cls-3{stroke-linecap:round;stroke-linejoin:round;}.cls-4{fill:#2a1e17;}.cls-5{fill:#f9865f;}.cls-6{fill:#2a1e33;}.cls-7{fill:#7595ec;}.cls-8{fill:#ff8a66;}.cls-9{fill:#fff7c9;}.cls-10{stroke:#2a1e33;}.cls-11{fill:#ff6d66;}.cls-12{fill:#fad8b0;}.cls-13{fill:#c6cbcb;}.cls-14{fill:#fff7dc;}.cls-15{fill:#ffe1c0;}.cls-17{fill:#91ba83;}.cls-18{stroke-width:0.67px;}.cls-19{fill:#96bd89;}.cls-20{stroke:#ff6d66;}.cls-21{stroke:#fad8b0;stroke-miterlimit:10;}.cls-22{stroke:#a0c6f4;}</style></defs><title>Asset 1</title><g id="Layer_2" data-name="Layer 2"><g id="Layer_3" data-name="Layer 3"><path class="cls-1" d="M324.65,102.52c-32.4-30.37-70.35-38.21-80.38-39.81,6.75-18.23,17.19-45.33,19.79-49.34a37.53,37.53,0,0,1,5.08-.29c7.37,0,23.14,1.53,46,11.8,33,14.83,41.78,31.51,43.51,35.59Z"/><path class="cls-2" d="M269.14,15.08c7.21,0,22.66,1.51,45.14,11.62,29.82,13.42,39.45,28.42,42,33.49L324.44,99.6a161,161,0,0,0-54.07-32.14A151.53,151.53,0,0,0,247,61.12c7.46-20.06,15.59-40.72,18.32-45.88.88-.08,2.16-.16,3.83-.16m0-4a33.83,33.83,0,0,0-6.07.42c-2.35.78-21.54,52.84-21.54,52.84s45.56,4.65,83.32,41.12l36-44.62s-6-20.26-45-37.78c-22.82-10.28-38.73-12-46.78-12Z"/><path class="cls-3" d="M248.22,68.39s44.8,4.52,72.41,29.87"/><polygon class="cls-2" points="286.9 66.2 303.62 33.7 320.8 67.59 286.9 66.2"/><polygon class="cls-3" points="290.15 65.74 306.87 33.24 324.05 67.13 290.15 65.74"/><path class="cls-3" d="M274.47,9.1s50.23,4.53,81.45,41.64"/><path class="cls-4" d="M300.13,153.12c-2.76-2-4.57-3.39-4.57-3.39.77-1,12.86-13.9,19.86-24.27C315.42,125.46,301.26,154,300.13,153.12Z"/><path class="cls-3" d="M128.85,59.25c1.34,2.24,1.94,1.35,5.83,1s9.42,2.54,11.37,7.33,1.34,5.53.3,6.13-8.53,1.5-8.83,3"/><polygon class="cls-5" points="229.62 302.71 226.13 296.82 213.77 317.43 217.01 319.93 229.62 302.71"/><path class="cls-5" d="M147.52,251.61s-6.4-10.41-3.65-15.52l20.43,2.19Z"/><path d="M147.52,251.61l1.23,2.82L145,269.15a5.06,5.06,0,0,0,1.59,5.07h0l18.69-27.63a6.42,6.42,0,0,0-.95-8.31l-4.17-3.88Z"/><path class="cls-6" d="M137.52,76.75c5.85-.14,13.27-.51,11.79-5s-7.05-15.57-19.66-12.24c0,0-4.45,3.71,1.12,10.39S137.52,76.75,137.52,76.75Z"/><path class="cls-7" d="M167.15,238.53s-10-29.5-1.54-42.45c7-10.69,29.77,6.69,32.9,9l16.31-29.46s-3.77-5.28-13-10.45-47.44-20.65-65.38,7.67c-6.64,10.46-6.74,55.37,6,72.58Z"/><path class="cls-3" d="M167.15,238.53s-10-29.5-1.54-42.45c7-10.69,29.77,6.69,32.9,9"/><path class="cls-7" d="M214.82,175.66c-7.42,7.81-29.42,45.85-34.36,64-6.62,24.32-4.13,44.49,32.23,84l17.58-25.6s-12.36-18.77-10.05-36.45c3.33-25.59,21.54-50.41,30.76-66.14Z"/><polygon class="cls-4" points="217.61 178.96 246.84 201.91 255.58 188.63 217.61 178.96"/><path class="cls-8" d="M385.53,154.84q6.84,1.47,10.42,5.21c2.39,2.5,1.3,3.8.43,4.56s-4.23-.11-7.16-2.72S385.53,154.84,385.53,154.84Z"/><path class="cls-5" d="M295.56,149.73c.77-1,12.86-13.9,19.86-24.27,0,0,21.15,23.7,23.44,24.46.86.29,6,.22,12.48.15,10.89-.11,25.36-.22,28.56,1.38,5.09,2.55,8.15,3.83,9.43,7.4s1.77,5.89-1.28,6.11c-3.57.26-5.86-4.33-5.86-4.33a71.09,71.09,0,0,1-10.45,4.59s-27.11,10.52-45.23,5.43C321.57,169.26,295.56,149.73,295.56,149.73Z"/><path class="cls-5" d="M131.24,55.06c-2.33.89-3.74,1.95-2.39,4.19s1.94,1.35,5.83,1,9.42,2.54,11.37,7.33,1.34,5.53.3,6.13-8.53,1.5-8.83,3,3,5.91,9.91,5.61l1.65-.3s14.47,14.14,16.56,16.23,17.49,12.52,26,14.64c6.44,1.61,19.49-.46,27.34-2,3.81-.74,6.39-1.35,6.39-1.35S219.45,99,218.26,82.67c0,0-14.09,2.26-23.45,4.31,0,0-21.84-12.17-32.46-17.56,0,0-9.27-11.37-13.61-12.86S134.38,53.87,131.24,55.06Z"/><path class="cls-4" d="M219,110.93c3.81-.74,6.39-1.35,6.39-1.35s-7.12-9-8.32-25.28c0,0-3.22,3.47-2.22,12.7C216.06,108.61,219,110.93,219,110.93Z"/><path class="cls-9" d="M216.68,82.47s.2,19.93,5.53,28.24l1.92-.77S199,139.37,190.84,158.6c-1.33,3.15,52.23,37.36,60.14,36.88,0,0,26.09-39.83,35-51.64l9.59,7.44s18.81-19.06,19.83-25.82c0,0-18.18-22.12-33-28.59S254.22,79.3,238.25,79.61C224.43,79.87,216.68,82.47,216.68,82.47Z"/><polygon class="cls-4" points="295.59 151.28 286 143.84 287.53 139.68 295.59 151.28"/><path class="cls-5" d="M310.18,72.49c-1.68,5.22-6.53,20.34-11.94,22.2s-11-.48-11-.48l-5.76,3c-.65,1.93-5.19,3.59-11.07,3.82-4.35.17-7-5.42-5.71-9.46.59-1.86,2.8-11,2.8-11s4.66-17.16,9-20.7,8.32-7.06,19.77-2.43C313.73,64.47,310.18,72.49,310.18,72.49Z"/><path class="cls-6" d="M275.42,73.23c-.77,3.21-4.11,9.63-6.29,8.47s-2.95-4.1-1.41-9.75,2.82-18.47,7.18-20.78,6.29.38,6.29.38-1.92-9.36,3.72-10.65c0,0,1.93-.89,1.16,5.52a8.58,8.58,0,0,1,9.23-5.13c7.06.77,9.5,10.65,9.5,10.65a3.55,3.55,0,0,1,3.72-2.7c3.21,0,8.08,4.75,6.93,10,0,0,8.21-2.57,12.57,4s3.85,13.73-6.67,16.55c-11,3-10.91-9.88-12.58-11.55s-3.46-3.59-9.62-1.28-12.57-4.49-12.57-4.49-1,8.21-2.05,9-3.08,1.79-2.57-2,1.15-3.47.77-4.49-2.12-4.27-5.77-1.42C272.85,66.69,275.42,73.23,275.42,73.23Z"/><path class="cls-10" d="M277.16,74.67c-2.44-2-4.14-5.68-2-9.3s5.68-4.11,6.76-2.74,1.49,3.68.48,6.42"/><path d="M217,319.92l1.23,2.82-3.78,14.72a5,5,0,0,0,1.59,5.07h0l18.69-27.63a6.41,6.41,0,0,0-1-8.31l-4.17-3.88Z"/><path class="cls-10" d="M281.19,51.55s-1.43-4.65-5.72-5.88"/><line class="cls-3" x1="190.25" y1="157.19" x2="242.03" y2="84.86"/><path class="cls-3" d="M263.38,89.92c-1.87,2.43-2.72,12.86,5.86,13.54a23.19,23.19,0,0,0,14.07-3.09"/><path class="cls-3" d="M148.74,56.56s5.92,7.83,6.85,10.62"/><path class="cls-3" d="M370.36,161.59s4,3.25,11.83-1c2.86-1.53.82-5.14-2.79-4.24a17.05,17.05,0,0,1-7.91-.45"/><path class="cls-3" d="M386.88,155.29s3.8,4.43,3.69,7.06"/><path class="cls-3" d="M331.05,154.81s3.43-4.57,7.81-4.89"/><path class="cls-3" d="M186.39,94.37s2-6.24,8.42-7.39"/><path class="cls-3" d="M203.78,189l-7.65,14.65S170.89,246.4,179.45,274"/><path class="cls-3" d="M226.14,238.05,251,195.48s32.55-47.21,35.88-53.87l11.49-21.25"/><path class="cls-3" d="M193.72,161.73s44.16,32.2,57.26,33.75"/><path class="cls-3" d="M216.68,82.47s0,20.21,5.41,28.49"/><path class="cls-3" d="M314,122.25c-1.39,8.33-19.83,25.82-19.83,25.82"/><circle class="cls-4" cx="176.44" cy="223.36" r="2.62"/><polygon class="cls-3" points="422.48 279.71 421.03 269.68 429.58 275.37 425.11 276.34 422.48 279.71"/><path class="cls-3" d="M138.74,108.48c-16.22-14.31-43,21.36,55,134.9,56.55,65.5,101,71.37,107,48.58,10.8-40.88-28.2-51.21-13.69-35.2,21.1,23.28,81.12,28.2,125.84,6.48,44.13-21.44,17-54.74,14.27-56.68"/><circle class="cls-4" cx="413.63" cy="263.03" r="2.62"/><line class="cls-3" x1="375.47" y1="284.44" x2="453.2" y2="240.62"/><circle class="cls-4" cx="140.35" cy="110.6" r="2.62"/><circle class="cls-11" cx="207.22" cy="56.45" r="5.63"/><path class="cls-2" d="M105.13,13.54A2.48,2.48,0,1,0,107.6,16a2.47,2.47,0,0,0-2.47-2.48Z"/><circle class="cls-12" cx="436.53" cy="318.25" r="2.47"/><path class="cls-6" d="M392.34,206.55l-26.59-12.48a2.75,2.75,0,0,1,.06-5l49.47-21.77a2.8,2.8,0,0,1,2.2,0l34,14.59Z"/><path class="cls-13" d="M390.69,165.54c.07,11,1.65,41,1.65,41l59.11-24.69-1.32-41.75a3.59,3.59,0,0,0-5.08-3.16l-50.9,23.2A5.88,5.88,0,0,0,390.69,165.54Z"/><path class="cls-3" d="M392.34,206.55l59.11-24.69-1.32-41.75s-.4-4.56-5.08-3.16"/><line class="cls-3" x1="420.95" y1="176.54" x2="424.94" y2="167.11"/><line class="cls-3" x1="424.94" y1="176.54" x2="428.93" y2="167.11"/><circle class="cls-11" cx="115.79" cy="276.97" r="2.47"/><circle class="cls-11" cx="324.32" cy="289.23" r="3.44"/><path class="cls-14" d="M141.42,313.64a73.46,73.46,0,0,0,31.23,6.7,1.4,1.4,0,0,1,1.4,1.59l-2.16,17.12a1.39,1.39,0,0,1-1.14,1.21c-4.37.82-22,3.25-35.22-7.95a1.4,1.4,0,0,1-.43-1.43l4.36-16.33A1.4,1.4,0,0,1,141.42,313.64Z"/><path class="cls-3" d="M143,318.68s7.63,10.71,10.35,12.24,17.39-7.21,17.39-7.21"/><line class="cls-3" x1="160.51" y1="329.43" x2="168.52" y2="337.66"/><line class="cls-3" x1="149.38" y1="327.84" x2="140.01" y2="330.39"/><rect class="cls-15" x="377.72" y="111.05" width="8.95" height="8.95"/><polygon class="cls-2" points="378.93 231.74 381.59 236.35 384.25 240.96 378.93 240.96 373.62 240.96 376.27 236.35 378.93 231.74"/><path class="cls-3" d="M163.88,27.67l.69-20.92c-.07-1.95.72-2.57,1.93-2.84,5.68-1.25,22.95-5.1,41.73.45,2.43.72,2.35,2,2.31,3.16l-.67,19.94a2.7,2.7,0,0,1-3.29,2.27,145.8,145.8,0,0,0-20.51-1,116.66,116.66,0,0,0-19.69,1.59C164.52,30.69,163.82,29.3,163.88,27.67Z"/><path class="cls-3" d="M170.2,24.61l10.93-12.8,12.1,11.94C189.06,22.4,170.2,24.61,170.2,24.61Z"/><polyline class="cls-3" points="187.83 17.74 196.67 10.66 204.12 15.98 204.4 24.29 193.23 23.75"/><ellipse class="cls-3" cx="172.82" cy="10.65" rx="1.83" ry="2.15" transform="translate(144.84 181.52) rotate(-84.23)"/><path class="cls-3" d="M375.27,299.37l7.34,13.54c.77,1.21.49,1.9-.17,2.52-3.14,2.91-12.68,11.77-26.68,15.23-1.8.45-2.23-.4-2.64-1.15l-7-12.91a2,2,0,0,1,1.24-2.67,106.66,106.66,0,0,0,13.4-7,85.23,85.23,0,0,0,11.91-8.32C373.74,297.69,374.7,298.31,375.27,299.37Z"/><path class="cls-3" d="M372.39,303.66l-2.18,12.19-12.13-3.09C361.24,312.08,372.39,303.66,372.39,303.66Z"/><polyline class="cls-3" points="363.75 314.58 360.76 322.36 354.06 321.75 350.79 316.57 358.08 312.76"/><ellipse class="cls-3" cx="375.92" cy="313.5" rx="1.58" ry="1.34" transform="translate(-96.3 184.65) rotate(-24.56)"/><path class="cls-16" d="M339.57,68.19,369.37,91a1.48,1.48,0,0,0,2.08-.29l4.49-6.1a1.46,1.46,0,0,0-.26-2L346.31,59.07a1.49,1.49,0,0,0-2.12.29l-4.92,6.8A1.48,1.48,0,0,0,339.57,68.19Z"/><polygon class="cls-11" points="341.78 67.17 349 72.24 353.27 67.15 346.04 61.12 341.78 67.17"/><polygon class="cls-12" points="351.72 74.22 358.96 79.96 362.84 75.19 355.55 69.28 351.72 74.22"/><polygon class="cls-2" points="361.39 82.16 368.62 87.23 372.06 82.81 365.22 77.08 361.39 82.16"/><path class="cls-16" d="M399,36.3l6.79,57.06a2.26,2.26,0,0,0,2.55,2l11.49-1.58a2.25,2.25,0,0,0,1.94-2.45L416.22,34a2.26,2.26,0,0,0-2.57-2l-12.72,1.86A2.26,2.26,0,0,0,399,36.3Z"/><polygon class="cls-11" points="402.5 37.64 404.65 50.98 414.79 50.23 413.68 35.86 402.5 37.64"/><polygon class="cls-17" points="405.38 56.08 406.81 70.15 416.19 69.31 414.89 55.01 405.38 56.08"/><polygon class="cls-12" points="406.99 75.18 409.14 88.52 417.67 87.58 416.64 73.95 406.99 75.18"/><path class="cls-16" d="M384.2,48.45,403,103.72a1.8,1.8,0,0,0,2.31,1.11l11.77-4.24a1.8,1.8,0,0,0,1.11-2.23L400.53,42.55a1.79,1.79,0,0,0-2.33-1.14l-12.92,4.78A1.8,1.8,0,0,0,384.2,48.45Z"/><polygon class="cls-2" points="388.02 49.46 392.9 62.07 402.66 59.22 398.59 45.39 388.02 49.46"/><polygon class="cls-5" points="394.68 66.9 399 80.37 408 77.59 403.76 63.87 394.68 66.9"/><polygon class="cls-12" points="400.22 85.25 405.1 97.85 413.25 95.15 409.41 82.03 400.22 85.25"/><rect class="cls-7" x="142.08" y="118.26" width="105.91" height="23.81" rx="5.48"/><rect class="cls-1" x="153.36" y="125.27" width="55.38" height="3.62" rx="1.81"/><line class="cls-3" x1="153.88" y1="133.59" x2="241.87" y2="133.59"/><path class="cls-17" d="M105.74,73.83H108a1.7,1.7,0,0,1,1.7,1.7v3.32a1.7,1.7,0,0,1-1.7,1.7h-2.22a0,0,0,0,1,0,0V73.83A0,0,0,0,1,105.74,73.83Z" transform="translate(92.05 -54.39) rotate(47.59)"/><rect class="cls-3" x="95.86" y="66.97" width="12.43" height="8.57" rx="0.98" transform="translate(118.31 194.67) rotate(-132.41)"/><rect class="cls-11" x="79.13" y="105.4" width="8.87" height="8.1"/><polyline class="cls-3" points="79.13 100.19 79.13 105.4 73.83 105.4"/><rect class="cls-12" x="371.38" y="13.93" width="8.87" height="8.1"/><polyline class="cls-3" points="371.38 8.72 371.38 13.93 366.08 13.93"/><path class="cls-3" d="M131.3,64c-92-38.12-162.77,35.3,10.59,147.72,13.65,8.86,34.58,12,34.58,12"/><circle class="cls-4" cx="46.71" cy="66.56" r="2.62"/><polygon class="cls-3" points="30.03 52.17 32.9 49.41 39.49 53.19 42.81 63.42 32.68 59.18 30.03 52.17"/><polygon class="cls-3" points="32.9 49.41 30.03 52.17 28.42 50.22 31.17 47.58 32.9 49.41"/><line class="cls-3" x1="42.81" y1="63.42" x2="36.22" y2="56.19"/><path class="cls-16" d="M58.75,247l7.15,36.83A1.47,1.47,0,0,0,67.65,285l7.41-1.57a1.48,1.48,0,0,0,1.15-1.69l-6.37-37.08a1.46,1.46,0,0,0-1.77-1.18l-8.19,1.81A1.48,1.48,0,0,0,58.75,247Z"/><polygon class="cls-11" points="61.08 247.7 63.12 256.29 69.68 255.32 68.28 246.01 61.08 247.7"/><polygon class="cls-12" points="63.84 259.58 65.44 268.67 71.51 267.68 69.98 258.42 63.84 259.58"/><polygon class="cls-2" points="65.8 271.94 67.83 280.53 73.34 279.5 72.03 270.68 65.8 271.94"/><polygon class="cls-3" points="263.44 339.31 293.64 331.23 294.8 334.5 264.25 342.43 263.44 339.31"/><line class="cls-3" x1="259.24" y1="335.09" x2="260.12" y2="337.83"/><line class="cls-3" x1="258.39" y1="336.88" x2="260.94" y2="336"/><line class="cls-3" x1="257.78" y1="345.56" x2="259.42" y2="350.74"/><line class="cls-3" x1="256.38" y1="348.84" x2="260.92" y2="347.4"/><line class="cls-3" x1="250.87" y1="337.02" x2="253.02" y2="343.88"/><line class="cls-3" x1="248.74" y1="341.29" x2="255.1" y2="339.26"/><polygon class="cls-18" points="43.17 11.15 24.06 2.52 24.85 0.34 44.08 9.19 43.17 11.15"/><line class="cls-18" x1="43.56" y1="15.13" x2="44.27" y2="13.33"/><line class="cls-18" x1="44.76" y1="14.56" x2="43.06" y2="13.93"/><line class="cls-18" x1="48.76" y1="10.31" x2="50.11" y2="6.93"/><line class="cls-18" x1="50.88" y1="9.2" x2="47.92" y2="8.02"/><line class="cls-18" x1="48.72" y1="17.68" x2="50.52" y2="13.21"/><line class="cls-18" x1="51.64" y1="16.37" x2="47.48" y2="14.72"/><path class="cls-12" d="M114.61,172.6c-13.47-9.71-26.71-24.78-20.9-40.27,0,0,9.29-6.19,24,1.55l14.71,7.74Z"/><path class="cls-1" d="M108.5,237.22c-6.06-2.86-31.95-16.34-36.55-39.37C68,178,83.18,151.14,90.81,139.28c-.49,15.73,15.3,29.05,22.92,34.53A81.73,81.73,0,0,0,135,185Z"/><path class="cls-12" d="M89.65,144c1.65,10.45,9.63,21.29,23.21,31.07a81.16,81.16,0,0,0,20,10.81l-25,49.39c-7.63-3.81-30.22-16.7-34.41-37.67-3.5-17.47,8.35-40.64,16.23-53.6m4.06-11.63s-28.65,38.72-23.23,65.82,38.71,41,38.71,41l27.88-55c-8.71-3.19-14.37-5.79-22.46-11.61-13.47-9.71-26.71-24.78-20.9-40.27Z"/><path class="cls-3" d="M86.17,154.83a33.23,33.23,0,0,0,17.22,23.88"/><line class="cls-3" x1="111.72" y1="184.27" x2="127.27" y2="192.6"/><path class="cls-3" d="M88.39,177.05s5,11.11,21.11,18.33"/><path class="cls-3" d="M75.62,178.71s.55,11.67,8.33,15.56"/><path class="cls-3" d="M93.39,138.17s-1.44,15,21.22,34.43"/><path class="cls-3" d="M101.72,140.94s7.22-.55,17.78,7.22"/><path class="cls-3" d="M67.77,188.77c-.47,7.43.46,34.36,39.46,51.53"/><path class="cls-17" d="M316.8,173.79l-16.54,33.15s11.22,4.13,2.45,17c0,0,20.73,8.6,34.3-13.73S316.8,173.79,316.8,173.79Z"/><path class="cls-1" d="M278.94,275.11c-8.37,0-17.21-3.42-26.28-10.17l31-51.26L302,225.27l.12,0a28.5,28.5,0,0,0,10.05,1.74h0a27.8,27.8,0,0,0,16.24-5.13l-22.62,38.7c-.06.07-9.8,14.47-26.86,14.48Z"/><path class="cls-19" d="M284.1,215.76l17,10.71.21.14.24.09a29.87,29.87,0,0,0,10.62,1.86A29.57,29.57,0,0,0,324.29,226l-19.74,33.77c-.65.94-9.81,13.82-25.61,13.82-7.71,0-15.87-3.05-24.28-9.07l29.44-48.78M337,210.2c-7.67,12.62-17.62,15.36-24.83,15.36a27,27,0,0,1-9.47-1.63l-19.6-12.33-32.43,53.72c10.86,8.37,20.33,11.29,28.26,11.29,18.12,0,28.15-15.23,28.15-15.23L337,210.2Z"/><path class="cls-3" d="M300.26,206.94s12.33,4.36,2.45,17"/><path class="cls-3" d="M282.73,210.44s16.81,15.4,26.11,15.29,20.21-2.31,26.65-13.41"/><path class="cls-3" d="M284.79,230.36s11.54,10.24,24.44,6.95"/><path class="cls-3" d="M296.91,245.67s6,4.53,14.51.24"/><path class="cls-3" d="M269.07,252s14,13.89,35.94,4.72"/><path class="cls-3" d="M276.67,238.43s5.69,4.08,9.26,5.38"/><path class="cls-3" d="M319.64,183.41s12.75,4.17,14.28,21"/><path class="cls-3" d="M326.05,204.2s5.87,9.08-4.05,18.17"/><path class="cls-3" d="M251.86,267.86s32,27.42,55.25-4.64"/><line class="cls-20" x1="20.78" y1="163.44" x2="28.24" y2="163.44"/><line class="cls-20" x1="436.53" y1="73.67" x2="443.99" y2="73.67"/><line class="cls-21" x1="236.38" y1="22.47" x2="243.85" y2="22.47"/><line class="cls-21" x1="450.78" y1="112.38" x2="458.12" y2="113.7"/><line class="cls-22" x1="157.6" y1="298.61" x2="165.07" y2="298.61"/><circle class="cls-17" cx="466.86" cy="205.57" r="2.47"/><circle class="cls-17" cx="2.47" cy="86.95" r="2.47"/><circle class="cls-4" cx="495.62" cy="364.81" r="2.62"/></g></g></svg>